<?xml version="1.0" encoding="UTF-8"?>
<svg width="1968px" height="434px" viewBox="0 0 1968 434" version="1.1" xmlns="http://www.w3.org/2000/svg" xmlns:xlink="http://www.w3.org/1999/xlink">
    <!-- Generator: Sketch 50.2 (55047) - http://www.bohemiancoding.com/sketch -->
    <title>zeppelin-logo</title>
    <desc>Created with Sketch.</desc>
    <defs></defs>
    <g id="Page-1" stroke="none" stroke-width="1" fill="none" fill-rule="evenodd">
        <g id="zeppelin-logo" fill="#FFFFFF" fill-rule="nonzero">
            <polygon id="Shape" points="371.79 0.76 8.4 0.76 8.4 89.99 319.38 89.99"></polygon>
            <polygon id="Shape" points="140.06 433.49 370.47 433.49 370.47 343.79 256.36 343.79"></polygon>
            <polygon id="Shape" points="171.1 343.79 306.29 112.39 164 153.28 0 433.49 118.69 433.49 171.1 343.79"></polygon>
            <polygon id="Shape" points="530.54 282.43 634.6 140.3 530.54 140.3 530.54 120.36 660 120.36 660 140.3 556.65 282.43 660 282.43 660 302.37 530.54 302.37"></polygon>
            <path d="M710.38,212.09 C710.38,160.24 735.38,114.92 790.15,114.92 C851.06,114.92 871.73,156.62 871.73,214.63 L871.73,216.44 L733.59,216.44 C734.31,254.87 748.82,287.87 793.05,287.87 C819.88,287.87 841.63,270.87 845.99,247.99 L868.47,247.99 C860.86,286.42 833.66,307.81 790.47,307.81 C732.86,307.81 710.38,258.86 710.38,212.09 Z M848.52,197.95 C848.52,160.24 829.67,134.86 790.52,134.86 C753.18,134.86 734.32,164.59 734.32,197.95 L848.52,197.95 Z" id="Shape"></path>
            <path d="M941.7,120.36 L963.09,120.36 L963.09,147.92 L963.81,147.92 C976.14,125.44 995.35,114.92 1020.73,114.92 C1071.85,114.92 1097.96,162.78 1097.96,209.92 C1097.96,256.33 1071.86,307.82 1020.73,307.82 C993.9,307.82 978.31,296.22 963.81,274.1 L963.09,274.1 L963.09,372 L941.7,372 L941.7,120.36 Z M1075.49,210.64 C1075.49,176.92 1059.49,134.86 1020.74,134.86 C980.13,134.86 961.64,175.11 961.64,211.36 C961.64,247.61 980.13,287.86 1020.74,287.86 C1059.9,287.86 1075.49,244.36 1075.49,210.64 Z" id="Shape"></path>
            <path d="M1165.4,120.36 L1186.79,120.36 L1186.79,147.92 L1187.51,147.92 C1199.84,125.44 1219.05,114.92 1244.43,114.92 C1295.55,114.92 1321.66,162.78 1321.66,209.92 C1321.66,256.33 1295.56,307.82 1244.43,307.82 C1217.6,307.82 1202.01,296.22 1187.51,274.1 L1186.79,274.1 L1186.79,372 L1165.4,372 L1165.4,120.36 Z M1299.19,210.64 C1299.19,176.92 1283.19,134.86 1244.44,134.86 C1203.83,134.86 1185.34,175.11 1185.34,211.36 C1185.34,247.61 1203.83,287.86 1244.44,287.86 C1283.6,287.86 1299.19,244.36 1299.19,210.64 Z" id="Shape"></path>
            <path d="M1381.49,212.09 C1381.49,160.24 1406.49,114.92 1461.26,114.92 C1522.17,114.92 1542.84,156.62 1542.84,214.63 L1542.84,216.44 L1404.69,216.44 C1405.41,254.87 1419.92,287.87 1464.15,287.87 C1490.98,287.87 1512.73,270.87 1517.09,247.99 L1539.57,247.99 C1531.96,286.42 1504.76,307.81 1461.57,307.81 C1404,307.81 1381.49,258.86 1381.49,212.09 Z M1519.63,197.95 C1519.63,160.24 1500.78,134.86 1461.63,134.86 C1424.29,134.86 1405.43,164.59 1405.43,197.95 L1519.63,197.95 Z" id="Shape"></path>
            <polygon id="Shape" points="1616.06 40.59 1637.06 40.59 1637.06 302.37 1616.06 302.37"></polygon>
            <path d="M1715.77,40.23 L1744.05,40.23 L1744.05,71.41 L1715.77,71.41 L1715.77,40.23 Z M1721.21,120.36 L1742.21,120.36 L1742.21,302.36 L1721.21,302.36 L1721.21,120.36 Z" id="Shape"></path>
            <path d="M1827.08,120.36 L1848.47,120.36 L1848.47,147.19 L1849.19,147.91 C1860.79,125.07 1882.19,114.91 1905.03,114.91 C1947.81,114.91 1967.76,147.91 1967.76,188.51 L1967.76,302.37 L1946.37,302.37 L1946.37,184.89 C1946.37,155.52 1928.97,134.89 1899.6,134.89 C1865.52,134.89 1848.48,166.07 1848.48,197.62 L1848.48,302.37 L1827.09,302.37 L1827.08,120.36 Z" id="Shape"></path>
        </g>
    </g>
</svg>